<?xml version="1.0" encoding="utf-8"?>
<!DOCTYPE svg PUBLIC "-//W3C//DTD SVG 1.1//EN" "http://www.w3.org/Graphics/SVG/1.1/DTD/svg11.dtd">
<svg version="1.1" style="transform:rotate(45deg); fill: #dfe0e1" xmlns="http://www.w3.org/2000/svg" xmlns:xlink="http://www.w3.org/1999/xlink" x="0px" y="0px" viewBox="0 0 1000 1000" enable-background="new 0 0 1000 1000" xml:space="preserve">
	<g>
		<path d="M984.7,490.9L512.9,19.1c0,0-0.1,0-0.1,0L500,6.2L487.2,19l0,0L15.3,490.9c-7.1,7.1-7.1,18.6,0,25.7c7,7.1,18.6,7.1,25.7,0L481.8,75.7v899.9c0,10,8.2,18.1,18.1,18.1c10,0,18.1-8.1,18.1-18.1V75.7L959,516.6c3.5,3.6,8.2,5.3,12.8,5.3c4.6,0,9.3-1.8,12.9-5.3C991.8,509.5,991.8,498,984.7,490.9z" />
	</g>
</svg>
