<?xml version="1.0" encoding="utf-8"?>
<!-- Generator: Adobe Illustrator 21.0.0, SVG Export Plug-In . SVG Version: 6.00 Build 0)  -->
<svg version="1.1" id="Layer_1" xmlns="http://www.w3.org/2000/svg" xmlns:xlink="http://www.w3.org/1999/xlink" x="0px" y="0px"
	 viewBox="0 0 340 146.3" style="enable-background:new 0 0 340 146.3;" xml:space="preserve">
<style type="text/css">
	.st0{fill:#131921;}
</style>
<g>
	<path class="st0" d="M77.2,94.6c-15.2,0-27,11.4-27,25.7v0.1c0,14.3,11.6,25.6,26.8,25.6s27-11.4,27-25.7v-0.1
		C104.1,105.9,92.5,94.6,77.2,94.6z"/>
	<path class="st0" d="M204.1,95.6c-0.1,0-0.1,0-0.2,0H170c-0.1,0-0.1,0-0.2,0c-0.1,0-0.1,0-0.2,0h-0.2l0,0c-3.7,0.2-6.7,3.2-6.7,6.9
		c0,3.7,3,6.8,6.7,6.9v0.1h9.1v27.8l0,0c0,0.2,0,0.3,0,0.5c0,4.5,3.7,8.2,8.3,8.2s8.3-3.7,8.3-8.2c0-0.2,0-0.3,0-0.5l0,0v-27.8h9.1
		l0,0c3.8-0.1,6.9-3.2,6.9-7C211.1,98.7,207.9,95.6,204.1,95.6z"/>
	<path class="st0" d="M240.6,94.6c-15.2,0-27,11.4-27,25.7v0.1c0,14.3,11.6,25.6,26.8,25.6s27-11.4,27-25.7v-0.1
		C267.5,105.9,255.9,94.6,240.6,94.6z"/>
	<path class="st0" d="M136.3,95.9h-13.8h-1l0,0c-0.1,0-0.2,0-0.3,0c-4.8,0-8.8,3.8-8.9,8.6l0,0c0,0.1,0,0.1,0,0.2v0.1v0.1
		c0,12.4,0,33.1,0,33.2c0,4.5,3.7,8.2,8.2,8.2s8.1-3.2,8.2-8.2c0-0.2,0-6.2,0-6.9l-0.1-0.1h0.1c0,0,0,0,0,0.1l11.2,10.9
		c3.2,3.8,8.4,5.7,12.4,2.7c2.8-1.9,4.2-5.3,2.5-8.6l-5.9-7.8c6-2.9,8.4-8.3,8.4-15.5v-0.1c0-5.1-1.6-8.7-4.5-11.7
		C149.3,97.6,145,95.9,136.3,95.9z"/>
	<path class="st0" d="M22.2,95.5H8.9l0,0c-4.9,0-8.9,4-8.9,8.9c0,0.1,0,0.1,0,0.2l0,0c0,12.4,0,32.9,0,33c0,4.5,3.7,8.2,8.2,8.2
		s8.2-3.7,8.2-8.2c0-0.2,0-6.3,0-6.3h5.4c13.3,0,22.4-6.3,22.4-18.3v-0.1C44.3,101.4,35.3,95.5,22.2,95.5z"/>
	<path class="st0" d="M337.6,17.1L327,2.5c0,0-2.8-3.8-7.2-2l-43.4,18.2c0,0-4.4,1.8-4.8,6.6L267,79.6c0,0-0.4,4.7,2.3,8.6l9.8,13.9
		c0,0,2.7,3.9,2.6,8.6l-0.9,25.7c0,0-0.2,4.7,2.3,0.7l20.3-32.9c0,0,2.5-4,6.8-6l19.6-9.2c0,0,4.3-2,4.7-6.7l5.3-56.5
		C340,25.7,340.4,21,337.6,17.1z M288.8,32.1c2.3,0,4.1,1.9,4.1,4.2s-1.9,4.1-4.2,4.1c-2.3,0-4.1-1.9-4.1-4.2
		C284.6,33.9,286.5,32,288.8,32.1z M292.9,56.6c0,0.6-0.1,1.2-0.4,1.7c-0.2,0.5-0.6,1-1,1.4s-0.9,0.7-1.4,0.9s-1.1,0.3-1.7,0.3
		s-1.2-0.1-1.7-0.4c-0.5-0.2-1-0.5-1.4-0.9s-0.7-0.9-0.9-1.4c-0.2-0.5-0.3-1.1-0.3-1.7l0.1-10.3c0-0.6,0.1-1.2,0.4-1.7
		c0.2-0.5,0.5-1,0.9-1.4s0.9-0.7,1.4-0.9s1.1-0.3,1.7-0.3s1.2,0.1,1.7,0.4c0.5,0.2,1,0.6,1.4,1s0.7,0.9,0.9,1.4
		c0.2,0.5,0.3,1.1,0.3,1.7V56.6z M302,82.1c0,0.6-0.5,1.1-1.1,1.1s-1.1-0.5-1.1-1.1V34.9c0-0.6,0.5-1.1,1.1-1.1s1.1,0.5,1.1,1.1
		V82.1z M326.4,69.3c-0.4,1.4-1,2.5-1.9,3.5c-0.8,1-1.8,1.8-3,2.3c-1.1,0.6-2.3,1-3.6,1.1c-1.2,0.2-2.5,0.1-3.7-0.2
		c-1.2-0.3-2.4-0.8-3.4-1.6c-1-0.7-1.9-1.7-2.7-3c-0.7-1.2-1.2-2.7-1.4-4.5v-0.2c-0.2-1.7-0.1-3.3,0.3-4.7s1-2.5,1.9-3.5
		c0.8-1,1.8-1.8,3-2.3c1.1-0.6,2.3-1,3.6-1.1c1.2-0.2,2.5-0.1,3.7,0.2s2.4,0.8,3.4,1.6c1,0.7,1.9,1.7,2.7,3c0.7,1.2,1.2,2.7,1.4,4.5
		v0.2C326.9,66.4,326.8,67.9,326.4,69.3z"/>
</g>
</svg>
