<svg xmlns="http://www.w3.org/2000/svg" width="132" height="45"><path d="M4.835 15.333v7.848H.281V0H8.1a8.372 8.372 0 0 1 6.122 2.153 7.332 7.332 0 0 1 2.195 5.464 7.509 7.509 0 0 1-2.195 5.5A8.224 8.224 0 0 1 8.1 15.333H4.835zM7.409 3.975H4.835v7.417h2.574a4.815 4.815 0 0 0 3.151-.96 3.428 3.428 0 0 0 1.172-2.815 3.239 3.239 0 0 0-1.172-2.749 5.07 5.07 0 0 0-3.151-.893m23.43 17.335a8.4 8.4 0 0 1-11.484 0 7.615 7.615 0 0 1-2.343-5.71 7.618 7.618 0 0 1 2.342-5.712 8.4 8.4 0 0 1 11.484 0 7.618 7.618 0 0 1 2.344 5.712 7.615 7.615 0 0 1-2.343 5.712M25.1 11.458a3.512 3.512 0 0 0-2.739 1.176 4.685 4.685 0 0 0 0 5.928 3.74 3.74 0 0 0 5.445 0 4.687 4.687 0 0 0 0-5.928 3.478 3.478 0 0 0-2.706-1.176m19.816-3.51v4.3H43.1a3.053 3.053 0 0 0-2.409.861 4.217 4.217 0 0 0-.759 2.815v7.252h-4.29V8.014H39.8v2.418a3.937 3.937 0 0 1 1.485-1.921 4.24 4.24 0 0 1 2.442-.7 4.906 4.906 0 0 1 1.188.133m3.531-5.3h4.29v5.762H56v3.643h-3.267v6.854q0 1.095 1.419 1.093l1.98-.1v3.675q-2.079.2-3.333.2a9.636 9.636 0 0 1-1.6-.116 4.993 4.993 0 0 1-1.353-.447 2.271 2.271 0 0 1-1.039-1.043 3.946 3.946 0 0 1-.363-1.8v-8.311h-2.376V8.411h2.376V2.65zm23.4 19.058a8.4 8.4 0 0 1-11.484 0 7.616 7.616 0 0 1-2.343-5.712 7.618 7.618 0 0 1 2.343-5.712 8.4 8.4 0 0 1 11.484 0 7.618 7.618 0 0 1 2.343 5.712 7.616 7.616 0 0 1-2.343 5.712M66.1 11.856a3.511 3.511 0 0 0-2.739 1.176 4.687 4.687 0 0 0 0 5.927 3.74 3.74 0 0 0 5.445 0 4.687 4.687 0 0 0 0-5.927 3.477 3.477 0 0 0-2.706-1.176m11.368 11.275a2.86 2.86 0 1 1 2.029.845 2.779 2.779 0 0 1-2.029-.845M0 29.051h11.183v1.276h-4.91v14.4H4.888v-14.4H0v-1.276zm19.955 11.155h-8.527a4.088 4.088 0 0 0 1.105 2.576 3.3 3.3 0 0 0 2.488 1.008 3.255 3.255 0 0 0 3.058-1.7h1.585a4.9 4.9 0 0 1-1.875 2.128 5.11 5.11 0 0 1-2.767.782 4.777 4.777 0 0 1-3.571-1.467 5.6 5.6 0 0 1 0-7.47 4.986 4.986 0 0 1 7.065-.022 5.61 5.61 0 0 1 1.439 4.121v.045zM15 35.793a3.32 3.32 0 0 0-2.388.918 3.817 3.817 0 0 0-1.139 2.375h6.965a3.6 3.6 0 0 0-1.072-2.341A3.227 3.227 0 0 0 15 35.793m8.984 1.142a4.479 4.479 0 0 0 0 5.735 3.44 3.44 0 0 0 2.668 1.142 3.494 3.494 0 0 0 1.931-.537 3.685 3.685 0 0 0 1.306-1.456l1.161.672a4.683 4.683 0 0 1-1.808 1.826 5.091 5.091 0 0 1-2.59.683 4.908 4.908 0 0 1-3.617-1.479 5.444 5.444 0 0 1 0-7.447 4.89 4.89 0 0 1 3.617-1.489 5.1 5.1 0 0 1 2.589.683 4.681 4.681 0 0 1 1.808 1.826l-1.161.672a3.548 3.548 0 0 0-3.236-1.971 3.443 3.443 0 0 0-2.668 1.142m16.484 7.8v-6.5a2.376 2.376 0 0 0-.669-1.8 2.455 2.455 0 0 0-1.764-.638 4.3 4.3 0 0 0-3.281 1.747v7.19h-1.362V29.051h1.34v7.213a4.409 4.409 0 0 1 3.526-1.68 3.508 3.508 0 0 1 2.634.963 3.6 3.6 0 0 1 .937 2.62v6.563h-1.361zm15.471-8.6v-7.086h1.384V44.73h-1.384v-7.369H47.97v7.369h-1.384V29.051h1.384v7.078h7.969zM68.1 43.924a5.012 5.012 0 0 1-6.205 0 3.6 3.6 0 0 1-1.116-2.71v-6.361h1.361v6.227a2.547 2.547 0 0 0 .792 2 3.373 3.373 0 0 0 4.13 0 2.543 2.543 0 0 0 .792-2v-6.227h1.362v6.361a3.6 3.6 0 0 1-1.116 2.71M77.367 45a4.361 4.361 0 0 1-2.254-.6 3.755 3.755 0 0 1-1.5-1.523v1.859h-1.361V29.051h1.361v7.728a3.668 3.668 0 0 1 1.5-1.568 4.4 4.4 0 0 1 2.3-.627 4.7 4.7 0 0 1 3.538 1.478 5.187 5.187 0 0 1 1.417 3.74 5.128 5.128 0 0 1-1.428 3.73A4.783 4.783 0 0 1 77.367 45m2.579-2.33a4.482 4.482 0 0 0 0-5.734 3.685 3.685 0 0 0-5.346.011 4.409 4.409 0 0 0 0 5.712 3.685 3.685 0 0 0 5.346.011m26.369-22.838a2.352 2.352 0 0 0 .044-1.928 2.594 2.594 0 0 0-2.41-1.617l-3.2-7.977 18.834-7.6 3.616 9.028-4.364 1.762a2.463 2.463 0 0 0-.964-.69 2.406 2.406 0 0 0-1.932-.019 2.482 2.482 0 0 0-1.4 1.363 2.529 2.529 0 0 0 .007 1.949 2.417 2.417 0 0 0 1.328 1.385 2.458 2.458 0 0 0 1.955.021 2.4 2.4 0 0 0 1.377-1.365 2.666 2.666 0 0 0 .219-1.253l4.34-1.751L132 31.707l-5.914 2.385-1.693-4.226a2.7 2.7 0 0 0 .754-2.925 2.482 2.482 0 0 0-1.381-1.407 2.417 2.417 0 0 0-1.928-.01 2.5 2.5 0 0 0-1.4 1.353 2.567 2.567 0 0 0 .011 1.959 2.4 2.4 0 0 0 1.324 1.376 2.661 2.661 0 0 0 1.218.221l1.692 4.225-24.123 9.727-3.66-9.148 13.865-5.591a.71.71 0 0 0 .4-.407l1.366-3.247a2.576 2.576 0 0 0 1.241-.177 2.569 2.569 0 0 0 1.4-3.294 2.52 2.52 0 0 0-1.362-1.414 2.456 2.456 0 0 0-1.924 0 2.521 2.521 0 0 0-1.408 1.344 2.55 2.55 0 0 0 0 1.963 2.512 2.512 0 0 0 .685.986l-1.238 2.947-13.587 5.479-4.24-10.587 4.674-1.885.372.928a2.2 2.2 0 0 0-.713.957 2.468 2.468 0 0 0-.012 1.957 2.384 2.384 0 0 0 1.346 1.378 2.436 2.436 0 0 0 1.958.029 2.6 2.6 0 0 0 1.407-3.306 2.427 2.427 0 0 0-1.377-1.4 2.393 2.393 0 0 0-1.215-.19l-.652-1.625a.689.689 0 0 0-.406-.4.713.713 0 0 0-.566-.02l-5.377 2.168-3.382-8.442 11.208-4.52 3.166 7.9a2.455 2.455 0 0 0-.874 3.027 2.406 2.406 0 0 0 1.325 1.375 2.458 2.458 0 0 0 1.958.031 2.42 2.42 0 0 0 1.384-1.378" fill="#131921" fill-rule="evenodd"/></svg>