<svg width="476" height="180" viewBox="0 0 476 180" fill="none" xmlns="http://www.w3.org/2000/svg">
<path fill-rule="evenodd" clip-rule="evenodd" d="M104.172 54.4906C104.172 49.6688 108.304 46 113.159 46C118.015 46 121.941 49.6688 121.941 54.4906C121.941 59.3124 118.015 63.086 113.159 63.086C108.304 63.086 104.172 59.3124 104.172 54.4906ZM61.1862 100.403H46C46 113.401 56.3307 122.73 71.8268 122.73C84.4303 122.73 97.2404 115.916 97.447 101.556C97.6536 94.6375 95.1742 84.7842 77.9219 79.7527L69.4507 77.0273C62.5292 75.0357 61.806 71.5765 61.806 69.6897C61.806 65.392 65.7317 62.457 71.0003 62.457C76.9922 62.457 80.1947 65.8113 80.1947 70.6331H95.2775C95.2775 56.7966 84.9468 48.5156 71.207 48.5156C57.5704 48.5156 46.7232 57.2159 46.7232 70.109C46.7232 76.608 49.4091 85.9372 65.1118 90.8638L73.6863 93.2748C80.9178 95.3712 82.3641 98.2014 82.2608 101.451C82.1575 106.168 77.9219 109.103 71.8268 109.103C65.0085 109.103 61.3928 105.015 61.1862 100.403ZM120.288 121.577V72.625H106.031V121.577H120.288ZM154.742 85.4139C160.734 85.4139 166.416 89.6068 166.416 96.9444C166.416 104.072 160.63 108.894 154.742 108.894C148.647 108.894 143.172 104.282 143.172 96.9444C143.172 90.0261 148.647 85.4139 154.742 85.4139ZM153.402 132.897C148.547 132.897 142.865 129.543 141.212 125.036C139.404 125.927 137.415 126.922 135.427 127.918C133.438 128.914 131.449 129.91 129.641 130.801C133.67 139.92 142.761 146 153.402 146C170.551 146 180.675 135.832 180.675 114.763V72.6244H166.729V78.7041C164.353 74.1967 158.258 71.5761 152.266 71.5761C139.869 71.5761 128.195 81.5343 128.195 97.2576C128.195 112.667 139.869 122.625 152.266 122.625C158.258 122.625 164.456 120.004 166.729 115.497C167.349 125.245 164.353 132.897 153.402 132.897ZM204.219 95.6853V121.576H189.859V72.6244H204.219V79.7523C206.802 74.8257 212.484 71.5762 218.166 71.5762C229.013 71.5762 235.831 78.3896 235.831 92.331V121.576H221.471V95.4757C221.471 88.9767 217.959 85.7272 213.104 85.7272C208.041 85.7272 204.219 88.2429 204.219 95.6853ZM259.35 121.577V72.625H245.093V121.577H259.35ZM243.234 54.4906C243.234 49.6688 247.366 46 252.222 46C257.077 46 261.003 49.6688 261.003 54.4906C261.003 59.3124 257.077 63.086 252.222 63.086C247.366 63.086 243.234 59.3124 243.234 54.4906ZM299.452 59.9414V46H297.076C283.233 46 275.278 54.281 275.278 69.2706V72.6249H266.187V84.1553H275.278V121.577H289.741V84.1553H299.452V72.6249H289.741V69.2706C289.741 63.5053 292.117 59.9414 297.076 59.9414H299.452ZM320.959 72.625V121.577H306.703V72.625H320.959ZM313.831 46C308.976 46 304.843 49.6688 304.843 54.4906C304.843 59.3124 308.976 63.086 313.831 63.086C318.686 63.086 322.612 59.3124 322.612 54.4906C322.612 49.6688 318.686 46 313.831 46ZM328.109 96.9431C328.109 81.5343 340.506 71.5761 354.349 71.5761C362.923 71.5761 370.671 75.3497 375.32 81.9535L363.647 90.4442C361.684 87.2995 358.068 85.5175 354.349 85.5175C348.254 85.5175 342.365 89.92 342.365 96.9431C342.365 103.966 348.254 108.683 354.349 108.683C358.068 108.683 361.684 106.901 363.647 103.757L375.32 112.142C370.775 118.746 363.027 122.625 354.349 122.625C340.506 122.625 328.109 112.352 328.109 96.9431ZM415.746 116.021V121.576H430.002V72.6244H415.746V78.0751C412.027 72.6244 404.795 71.5761 401.696 71.5761C389.402 71.5761 377.109 81.3246 377.109 97.048C377.109 112.771 389.402 122.52 401.696 122.52C405.415 122.52 412.646 120.738 415.746 116.021ZM404.07 108.685C398.078 108.685 391.983 104.072 391.983 97.0492C391.983 90.0261 398.078 85.4139 404.07 85.4139C409.959 85.4139 415.744 89.7117 415.744 97.0492C415.744 104.387 409.959 108.685 404.07 108.685Z" fill="black"/>
</svg>
