<?xml version="1.0" encoding="utf-8"?>
<!-- Generator: Adobe Illustrator 25.1.0, SVG Export Plug-In . SVG Version: 6.00 Build 0)  -->
<svg version="1.1" id="Ebene_1" xmlns="http://www.w3.org/2000/svg" xmlns:xlink="http://www.w3.org/1999/xlink" x="0px" y="0px"
	 viewBox="0 0 154 154" style="enable-background:new 0 0 154 154;" xml:space="preserve">
<style type="text/css">
	.st0{fill:#007575;}
	.st1{fill:#FFFFFF;}
</style>
<path class="st0" d="M131.600052,50.293427c0,16.810738-14.685776,79.375046-41.972755,79.375046
	c-24.838966,0-67.227348-46.960327-67.227348-71.106285S72.475113,24.33152,92.720589,24.33152
	C119.826469,24.33152,131.600052,33.482697,131.600052,50.293427z"/>
<path class="st1" d="M67.980011,50.875969l1.718407,14.170464l2.39093-14.170464h4.28344l2.241226,14.170464l2.017303-14.170464
	h3.884911l-2.88884,17.25882h-5.30442L74.181129,54.96093l-2.266136,13.173859h-5.18013l-2.839024-17.25882H67.980011z
	 M62.275299,50.876083l-0.42318,2.913994h-6.07658v4.134254h5.30442v2.86393h-5.30442v4.407722h6.49976v2.938919H51.691368
	v-17.25882H62.275299z M40.257969,50.875969l5.105148,13.399078c-0.223919-1.395119-0.547718-3.660988-0.547718-6.425545v-6.973534
	h3.660728v17.25882h-5.204781l-4.980881-13.37365c0.199272,1.569221,0.523083,3.860519,0.523083,7.048264v6.325386H35.17746
	v-17.25882H40.257969z M92.538239,76.094009h-1.467773v4.975945h1.716591c1.791321,0,2.736801-0.77137,2.736801-2.58786
	C95.523857,76.815323,94.553467,76.094009,92.538239,76.094009z M76.763184,75.796082
	c-2.288712,0-3.483017,1.691422-3.483017,6.045433c0,4.37841,1.243866,6.070084,3.483017,6.070084
	c2.338516,0,3.507645-1.691673,3.507645-6.070084C80.270828,77.487503,79.07679,75.796082,76.763184,75.796082z
	 M106.920311,73.232994v17.240921h-4.080025V73.232994H106.920311z M116.821602,73.232994l-5.497986,7.73764l5.945808,9.503281
	h-4.72686l-5.497978-9.205421l5.473068-8.0355H116.821602z M92.637871,73.232941c4.677048,0,7.090286,1.666779,7.090286,5.249153
	c0,2.26458-1.069756,3.608055-3.308899,4.652649l4.378662,7.339111h-4.602325l-3.532814-6.592903h-1.592316v6.592903h-4.080017
	V73.232941H92.637871z M51.409096,73.232994l1.71685,14.15567l2.388081-14.15567h4.279293l2.238888,14.15567l2.015232-14.15567
	h3.88102l-2.885994,17.240921H59.7435L57.603989,77.31353l-2.264061,13.160385h-5.174679l-2.83617-17.240921H51.409096z
	 M76.763184,72.810204c4.876038,0,7.786674,3.283737,7.786674,9.031311c0,5.64743-2.910637,9.054924-7.786674,9.054924
	c-4.85141,0-7.762047-3.308388-7.762047-9.054924C69.001137,76.218742,71.911774,72.810204,76.763184,72.810204z
	 M106.851318,95.734474l-0.148148,1.057831h-5.94529v5.394966h5.14122v1.058083h-5.14122v5.924004h6.241585v1.057823h-7.510864
	V95.734474H106.851318z M92.654755,95.501793c1.883171,0,3.025581,0.592346,4.167984,1.60788l-0.740501,0.80407
	c-1.078842-0.930946-2.052071-1.333107-3.385178-1.333107c-1.777054,0-3.004303,0.930939-3.004303,2.454239
	c0,1.480995,0.782791,2.158188,3.385193,2.940987c2.602386,0.80407,4.188988,1.734749,4.188988,4.294853
	c0,2.475517-1.882912,4.189255-4.80262,4.189255c-1.98877,0-3.448486-0.698204-4.633446-1.819595l0.740753-0.80407
	c1.057823,0.930946,2.178955,1.544571,3.871674,1.544571c2.031059,0,3.533081-1.121391,3.533081-3.067863
	c0-1.756042-0.867378-2.475258-3.448494-3.279327c-2.877419-0.888649-4.125687-1.882912-4.125687-3.977539
	C88.402199,97.003815,90.115936,95.501793,92.654755,95.501793z"/>
</svg>
