<svg version="1.1" xmlns="http://www.w3.org/2000/svg" xmlns:xlink="http://www.w3.org/1999/xlink" x="0px" y="0px" viewBox="0 0 420.9 406" style="enable-background:new 0 0 420.9 406;" xml:space="preserve">
                    <path fill="#131921" d="M271,0c104.5,0,149.8,35.3,149.8,100.1S364.3,406,259.1,406C163.4,406,0,225,0,131.9S193,0,271,0z"></path>
                    <path fill="#dfe0e1" d="M286.8,280.5l-2.9,3.1c-4.2-3.6-7.9-5.1-13-5.1c-6.8,0-11.6,3.6-11.6,9.5c0,5.7,3,8.3,13,11.3
                        c10,3.1,16.1,6.7,16.1,16.6c0,9.5-7.3,16.1-18.5,16.1c-7.7,0-13.3-2.7-17.9-7l2.9-3.1c4.1,3.6,8.4,6,14.9,6
                        c7.8,0,13.6-4.3,13.6-11.8c0-6.8-3.3-9.5-13.3-12.6c-11.1-3.4-15.9-7.3-15.9-15.3c0-7.9,6.6-13.7,16.4-13.7
                        C278,274.3,282.4,276.6,286.8,280.5z M324.9,279.3H302v20.8h19.8v4.1H302V327h24.1v4.1h-28.9v-55.9h28.4L324.9,279.3z M100.5,168.8
                        H80.4l-19.2-51.5c0.8,6,2,14.9,2,27.2v24.4h-14v-66.5h19.6l19.7,51.6c-0.9-5.4-2.1-14.1-2.1-24.8v-26.9h14.1V168.8z M152.1,113.5
                        h-23.4v15.9h20.4v11h-20.4v17h25.1v11.3h-40.8v-66.5h40.8L152.1,113.5z M228.3,168.8h-20.4l-8.3-50.8l-8.7,50.8h-20l-10.9-66.5h15.7
                        l6.6,54.6l9.2-54.6H208l8.6,54.6l7.8-54.6h15L228.3,168.8z M164.4,254.9h-20.4l-8.2-50.7l-8.7,50.7H107l-10.9-66.4h15.7l6.6,54.6
                        l9.2-54.6h16.5l8.6,54.6l7.8-54.6h15L164.4,254.9z M239.5,221.7c0,21.8-11.2,34.9-30,34.9c-18.7,0-29.9-12.8-29.9-34.9
                        c0-21.7,11.2-34.8,29.9-34.8C228.3,186.8,239.5,199.5,239.5,221.7z M196.1,221.7c0,16.9,4.8,23.4,13.4,23.4c9,0,13.5-6.5,13.5-23.4
                        c0-16.8-4.6-23.3-13.5-23.3C200.7,198.4,196.1,204.9,196.1,221.7z M270.8,229.5h-6.1v25.4h-15.7v-66.4h21.8c18,0,27.3,6.4,27.3,20.2
                        c0,8.7-4.1,13.9-12.8,17.9l16.9,28.3h-17.7L270.8,229.5z M264.7,218.7h6.6c6.9,0,10.5-3,10.5-10c0-6.4-3.7-9.2-11.5-9.2h-5.7V218.7z
                        M325.8,254.9H310v-66.4h15.7V254.9z M342.7,218.3l22.9,36.6h-18.2l-21.2-35.5l21.1-31h16.6L342.7,218.3z"></path>
                    </svg>