<svg id="Layer_1" data-name="Layer 1" xmlns="http://www.w3.org/2000/svg" xmlns:xlink="http://www.w3.org/1999/xlink" viewBox="0 0 546.79 126.92"><defs><style>.cls-1{stroke:#296eb6;stroke-linecap:square;stroke-miterlimit:35;fill:url(#radial-gradient);}.cls-2{fill:#696868;}.cls-3{fill:#296eb6;}</style><radialGradient id="radial-gradient" cx="71.63" cy="70.95" r="62.96" gradientUnits="userSpaceOnUse"><stop offset="0" stop-color="#64aee1"/><stop offset="0.25" stop-color="#3a8ac9"/><stop offset="0.42" stop-color="#2075bb"/><stop offset="0.58" stop-color="#226ab3"/><stop offset="0.86" stop-color="#284d9c"/><stop offset="1" stop-color="#2c3c8f"/></radialGradient></defs><title>basecone_logo</title><path class="cls-1" d="M107.63,84.79a36.76,36.76,0,0,0-6.51-27.58,29,29,0,0,1,2.53,14.93,32.06,32.06,0,0,0-6.33-16.37,30.11,30.11,0,0,0-13.55-10.1,29.47,29.47,0,0,0-16.46-1.18A29,29,0,0,0,45.16,66.63a29.46,29.46,0,0,0,1.18,16.48,30.21,30.21,0,0,0,10.1,13.54A32,32,0,0,0,72.81,103a29.47,29.47,0,0,1-17.88-4.06A31.68,31.68,0,0,1,42.31,84.78,32.46,32.46,0,0,1,40,65.61a33.1,33.1,0,0,1,3.21-9.3c.3-.58.62-1.14,1-1.7l-.24.28a36.93,36.93,0,0,0-8.31,29.9,38.76,38.76,0,0,0,9.26,19.58A36.73,36.73,0,0,1,33.42,85.22a39.25,39.25,0,0,1-.93-11.45A38.36,38.36,0,0,1,35,62.47a39.18,39.18,0,0,1,25-23.2,39.45,39.45,0,0,1,23.27,0,39.49,39.49,0,0,1,10.58,5.11,39,39,0,0,1,14.38,18.1,38.42,38.42,0,0,1,1.6,22.75,36.73,36.73,0,0,1-11.45,19.15A38.76,38.76,0,0,0,107.63,84.79ZM62.75,67.21a8.68,8.68,0,0,0,.11,5.4,9.09,9.09,0,0,0,3.36,4.46,9.37,9.37,0,0,0,2.57,1.28,9.68,9.68,0,0,0,2.84.44,9.79,9.79,0,0,0,2.84-.44A9.37,9.37,0,0,0,77,77.07,9.19,9.19,0,0,0,80.4,72.6a8.65,8.65,0,0,0,.1-5.39,7.65,7.65,0,0,0-3-4.11,8.46,8.46,0,0,1,.72,8.61,7.63,7.63,0,0,1-2.77,3,7.26,7.26,0,0,1-3.82,1.08,7,7,0,0,1-2-.28,6.84,6.84,0,0,1-1.84-.81,7.59,7.59,0,0,1-2.76-3,8.48,8.48,0,0,1,.71-8.61A7.65,7.65,0,0,0,62.75,67.21ZM80.53,47.86a23.67,23.67,0,0,0-6.93-.67,23.23,23.23,0,0,0-6.9,1.45,23.77,23.77,0,0,0-11.1,8.71,24,24,0,0,0-3.15,6.48,24,24,0,0,0,0,14.24,24.11,24.11,0,0,0,3.15,6.47,23.68,23.68,0,0,0,11.1,8.7A23.07,23.07,0,0,0,80.53,94a21.54,21.54,0,0,0,11.35-7.14,23.32,23.32,0,0,1-11.74,5.19A22,22,0,0,1,67.93,90.3a21.65,21.65,0,0,1-9.13-7.91,20.89,20.89,0,0,1-1.92-3.77,17.89,17.89,0,0,0,3,4,17.4,17.4,0,0,0,9.35,4.85,17.12,17.12,0,0,0,10.26-1.45,16.2,16.2,0,0,0,7.21-6.94,14.23,14.23,0,0,0,1.47-9.33A15.69,15.69,0,0,1,77.84,82a14.15,14.15,0,0,1-7.57.31,13.55,13.55,0,0,1-6.43-3.6,12.67,12.67,0,0,1-2.24-3,13.33,13.33,0,0,1-1.36-3.47,14,14,0,0,1,.31-7.55A15.72,15.72,0,0,1,72.77,54.38a14.24,14.24,0,0,0-9.33,1.47,15.71,15.71,0,0,0-4.75,3.85l.12-.2a21.6,21.6,0,0,1,9.12-7.9,22,22,0,0,1,12.21-1.77A23.43,23.43,0,0,1,91.88,55,21.74,21.74,0,0,0,80.53,47.86Zm48.87-2.57a62.52,62.52,0,0,0-9.91-15.84,63.36,63.36,0,0,0-14.06-12.14A61.7,61.7,0,0,0,88.54,10a59.54,59.54,0,0,0-18.13-1.9,64.36,64.36,0,0,1,17.68,3.37,60.94,60.94,0,0,1,41.27,52.49,60.24,60.24,0,0,1-7,33.59A60.78,60.78,0,0,1,98.2,121.72a60.3,60.3,0,0,1-33.6,6.95A58.26,58.26,0,0,1,56,127.29a57.17,57.17,0,0,1-8.35-2.59,34.59,34.59,0,0,1-5.34-2.24,67.78,67.78,0,0,0,9.39,2.7,55.75,55.75,0,0,0,16.25,1.2,55.12,55.12,0,0,0,16-3.68,56,56,0,0,0,7.44-3.59,54.4,54.4,0,0,0,6.8-4.69,56.53,56.53,0,0,0,11.23-12.13,55,55,0,0,0,7.32-15.56,48,48,0,0,0,1.67-24.1c0-.07,0-.14,0-.21A55.45,55.45,0,0,0,83.91,19.21a54.32,54.32,0,0,0-47.25,3.43A52.57,52.57,0,0,0,24.24,32.7,56.6,56.6,0,0,1,37.3,23.83a54.2,54.2,0,0,1,45.16-1.11,52.82,52.82,0,0,1,9.68,5.51A47.68,47.68,0,0,0,39.91,35a48.15,48.15,0,0,0-9.09,10.71,44.89,44.89,0,0,0-6.66,26.45,47.41,47.41,0,0,1,8.92-24.93A45.87,45.87,0,0,1,53.53,31.4a46.39,46.39,0,0,1,12.58-2.86,44.29,44.29,0,0,1,48,43A51.53,51.53,0,0,1,112,86a50.32,50.32,0,0,1-3.75,9.2,45.68,45.68,0,0,1-12.85,14.32,47.45,47.45,0,0,1-24.94,8.93,43.9,43.9,0,0,0,19.1-3l-.27.18a52.14,52.14,0,0,1-6.78,3.57,53.73,53.73,0,0,1-30.3,3.66,54.57,54.57,0,0,1-23.35-9.91,60,60,0,0,1-8.54-9.67A62.76,62.76,0,0,1,8.74,69.73,59,59,0,0,0,9,78.84a60.61,60.61,0,0,0,1.66,9A61.5,61.5,0,0,0,18,104.75a63.36,63.36,0,0,0,12.14,14.06,62.31,62.31,0,0,0,34,14.72A63.31,63.31,0,0,0,116,115.3a63.41,63.41,0,0,0,13.41-70Z" transform="translate(-8.17 -7.48)"/><path class="cls-2" d="M197.76,51.62c-6.61,0-12.08,2.45-15.7,7V30.12h-10.7v59.5c0,4.34-.21,9.27-.4,12.44l-.07,1.06h9.62l.31-6.28c3.61,4.9,8.86,7.38,15.64,7.38,10.93,0,22.7-8.42,22.7-26.89.05-8.13-2.48-15.19-7.13-19.87A19.68,19.68,0,0,0,197.76,51.62Zm-2.8,9c9.25,0,13.4,8.54,13.4,17,0,10.86-5.25,17.6-13.7,17.6a12.54,12.54,0,0,1-12.22-9.49,15.12,15.12,0,0,1-.38-3V74a14.28,14.28,0,0,1,.38-3l.08-.39C184.14,64.66,189.14,60.62,195,60.62Z" transform="translate(-8.17 -7.48)"/><path class="cls-2" d="M263.26,90.52V72.42c0-9.49-3.37-20.8-19.4-20.8a31,31,0,0,0-16.45,4.46l-.66.43,2.68,7.74,1.07-.69a23.08,23.08,0,0,1,12.06-3.44c6.63,0,10,3.43,10,10.2h0c-18.78.14-29.11,6.87-29.11,19,0,7.41,5.43,14.9,15.8,14.9a19.33,19.33,0,0,0,14.35-6l.56,4.94h10.09l-.21-1.18A65.57,65.57,0,0,1,263.26,90.52Zm-21.7,5.2c-3.53,0-7.31-1.94-7.31-7.4,0-6.58,6.09-9.91,18.09-9.91h.42v7.41a8.05,8.05,0,0,1-.45,2.48A11.1,11.1,0,0,1,241.56,95.72Z" transform="translate(-8.17 -7.48)"/><path class="cls-2" d="M291.41,73.09c-6.64-2.53-8.56-4.16-8.56-7.27,0-3.35,2.86-5.6,7.1-5.6a17.9,17.9,0,0,1,9.37,2.65l1.07.67,2.87-8.36-.7-.42a25.3,25.3,0,0,0-12.41-3.14c-10.42,0-17.7,6.25-17.7,15.2,0,4.49,2.34,10.68,13.46,14.64,6.24,2.3,8.34,4.31,8.34,8,0,3.89-3.14,6.2-8.4,6.2a22.06,22.06,0,0,1-11.05-3.33l-1.09-.72-2.86,8.71.7.41a28.67,28.67,0,0,0,14.1,3.43c11.61,0,19.11-6.08,19.11-15.5C304.76,81.39,300.64,76.6,291.41,73.09Z" transform="translate(-8.17 -7.48)"/><path class="cls-2" d="M333.25,51.62c-13.95,0-23.7,11.14-23.7,27.1,0,15.43,9.74,25.4,24.8,25.4,8,0,13.4-1.68,16.52-3.09l.75-.34-2-8.25-1.09.46a30.56,30.56,0,0,1-13,2.42c-4.5,0-14.84-1.46-15.56-14.8h33.86l.15-1.31a30.42,30.42,0,0,0,.26-3.79C354.26,64.44,348.76,51.62,333.25,51.62Zm-.7,8.3a10.33,10.33,0,0,1,7.68,2.9c2.86,2.91,3.42,7.2,3.51,9.4H320.21C321.11,67.19,324.51,59.92,332.55,59.92Z" transform="translate(-8.17 -7.48)"/><path class="cls-3" d="M385.65,60.72a19.34,19.34,0,0,1,9.71,2.17l1.1.63,2.59-8.82-.75-.37a30.29,30.29,0,0,0-12.65-2.61c-15.89,0-27,11-27,26.7,0,15.37,10.09,25.7,25.1,25.7a33.61,33.61,0,0,0,14.37-2.91l.68-.36-1.94-8.53-1.11.49a24,24,0,0,1-10.4,2.31c-9.45,0-15.8-6.87-15.8-17.1C369.55,67.51,375.87,60.72,385.65,60.72Z" transform="translate(-8.17 -7.48)"/><path class="cls-3" d="M426.85,51.62c-14.72,0-25,11-25,26.7,0,15.25,9.95,25.9,24.2,25.9,12.5,0,25.11-8.25,25.11-26.7C451.16,62,441.39,51.62,426.85,51.62Zm-.4,44c-7.93,0-13.7-7.4-13.7-17.6,0-8.86,4.3-17.8,13.9-17.8,9.28,0,13.5,9.12,13.5,17.6C440.15,88.14,434.39,95.62,426.45,95.62Z" transform="translate(-8.17 -7.48)"/><path class="cls-3" d="M484.35,51.62A19,19,0,0,0,469,58.89l-.39-6.17h-9.82l.08,1.08c.28,3.7.4,7.6.4,13v36.3h10.8V73a11.69,11.69,0,0,1,.56-3.81,11.46,11.46,0,0,1,10.84-8.29c8.43,0,10.2,7.23,10.2,13.3v28.9h10.81V73.22C502.46,52.66,487.38,51.62,484.35,51.62Z" transform="translate(-8.17 -7.48)"/><path class="cls-3" d="M534,51.62c-14,0-23.7,11.14-23.7,27.1,0,15.43,9.74,25.4,24.8,25.4,8,0,13.4-1.68,16.52-3.09l.75-.34-2-8.25-1.09.46a30.56,30.56,0,0,1-13,2.42c-4.5,0-14.84-1.46-15.56-14.8h33.86l.15-1.3a33.08,33.08,0,0,0,.25-3.8C555,64.44,549.45,51.62,534,51.62Zm-.7,8.3a10.33,10.33,0,0,1,7.68,2.9c2.85,2.91,3.42,7.2,3.51,9.4H520.91C521.81,67.19,525.21,59.92,533.25,59.92Z" transform="translate(-8.17 -7.48)"/></svg>