<svg width="800" height="600" viewBox="0 0 800 600" fill="none" xmlns="http://www.w3.org/2000/svg">
<path d="M270.879 332.464V347.44H224.079C195.423 347.44 172.239 324.256 172.239 295.6C172.239 266.944 195.423 243.76 224.079 243.76H270.879V258.304H224.079C203.631 258.592 187.071 275.152 187.071 295.6C187.071 316.048 203.631 332.464 224.079 332.464H270.879ZM312.382 347.44C333.55 347.44 347.23 332.464 347.23 310.144C347.23 287.68 333.55 272.704 312.382 272.704C291.07 272.704 277.534 287.68 277.534 310.144C277.534 332.464 291.07 347.44 312.382 347.44ZM291.214 310.144C291.214 295.024 298.702 283.792 312.382 283.792C325.918 283.792 333.406 295.024 333.406 310.144C333.406 325.12 325.918 336.496 312.382 336.496C298.702 336.496 291.214 325.12 291.214 310.144ZM364.524 346H378.492V243.76H364.524V346ZM462.622 322.672H449.518C447.79 331.168 441.31 336.496 431.23 336.496C418.702 336.496 410.206 327.856 409.342 313.456H462.334V310.72C462.334 286.96 450.238 272.704 429.646 272.704C407.47 272.704 395.518 289.408 395.518 310C395.518 330.448 407.47 347.44 430.942 347.44C450.67 347.44 460.894 336.064 462.622 322.672ZM409.63 303.952C411.358 291.568 417.982 283.36 429.79 283.36C441.742 283.36 447.358 291.712 448.51 303.952H409.63ZM519.611 334.768H511.259C503.195 334.768 499.163 330.016 499.163 320.8V284.512H517.163V274H499.163V254.848L485.339 257.152V274H471.803V284.512H485.339V322.528C485.339 337.36 494.411 346 507.947 346H519.611V334.768ZM531.848 247.648V261.76H547.4V247.648H531.848ZM532.712 346H546.536V274H532.712V346ZM633.539 273.856H618.275L596.675 331.888L574.931 273.856H559.667L588.467 346H604.739L633.539 273.856Z" fill="black"/>
</svg>
