<svg xmlns="http://www.w3.org/2000/svg" viewBox="0 0 113.12 34.02"><defs><style>.cls-1{fill:#1a7dfe;}</style></defs><title>Asset 1</title><g id="Layer_2" data-name="Layer 2"><g id="Layer_1-2" data-name="Layer 1"><path class="cls-1" d="M17.21,23.75A6.57,6.57,0,0,0,23,20.83L20.25,18.9a3.55,3.55,0,0,1-2.93,1.57A3.21,3.21,0,0,1,14.23,17v0a3.21,3.21,0,0,1,3.09-3.43,3.5,3.5,0,0,1,2.84,1.52L22.86,13a6.36,6.36,0,0,0-5.5-2.71A6.67,6.67,0,0,0,10.52,17v0A6.59,6.59,0,0,0,17.21,23.75Z"/><path class="cls-1" d="M31.82,23.75a6.79,6.79,0,0,0,7-6.74v0a6.73,6.73,0,0,0-7-6.71,6.8,6.8,0,0,0-7,6.75v0A6.74,6.74,0,0,0,31.82,23.75ZM28.54,17a3.3,3.3,0,0,1,3.28-3.46A3.38,3.38,0,0,1,35.16,17v0a3.31,3.31,0,0,1-3.3,3.47A3.37,3.37,0,0,1,28.54,17Z"/><polygon class="cls-1" points="51.46 20.34 45.18 20.34 45.18 10.52 41.59 10.52 41.59 23.49 51.46 23.49 51.46 20.34"/><polygon class="cls-1" points="65.01 20.44 58.05 20.44 58.05 18.38 64.27 18.38 64.27 15.54 58.05 15.54 58.05 13.58 64.92 13.58 64.92 10.52 54.49 10.52 54.49 23.49 65.01 23.49 65.01 20.44"/><polygon class="cls-1" points="71.68 23.49 75.28 23.49 75.28 13.67 79.17 13.67 79.17 10.52 67.79 10.52 67.79 13.67 71.68 13.67 71.68 23.49"/><rect class="cls-1" x="82.3" y="10.52" width="3.61" height="12.97"/><polygon class="cls-1" points="97.33 23.49 102.59 10.52 98.65 10.52 95.7 18.64 92.76 10.52 88.74 10.52 94 23.49 97.33 23.49"/><path class="cls-1" d="M0,0V34H113.12V0ZM109.59,30.49H3.53v-27H109.59Z"/></g></g></svg>